<svg xmlns="http://www.w3.org/2000/svg" xmlns:xlink="http://www.w3.org/1999/xlink" width="536" zoomAndPan="magnify" viewBox="0 0 402 109.499999" height="146" preserveAspectRatio="xMidYMid meet" version="1.0"><defs><clipPath id="574093c215"><path d="M 1.183594 17.917969 L 399.121094 17.917969 L 399.121094 108.253906 L 1.183594 108.253906 Z M 1.183594 17.917969 " clip-rule="nonzero"/></clipPath><clipPath id="300472d83b"><path d="M 181.070312 0.316406 L 220.929688 0.316406 L 220.929688 17.917969 L 181.070312 17.917969 Z M 181.070312 0.316406 " clip-rule="nonzero"/></clipPath></defs><g clip-path="url(#574093c215)"><path fill="#4643df" d="M 390.660156 59.378906 C 390.660156 59.378906 390.660156 59.378906 390.648438 59.574219 C 390.613281 60.011719 390.613281 60.011719 390.613281 60.011719 C 390.238281 59.980469 388.957031 59.5 388.859375 59.066406 C 388.761719 58.632812 388.910156 58.636719 389.195312 59.074219 C 389.195312 59.074219 389.195312 59.074219 389.589844 59.21875 C 389.855469 59.316406 389.855469 59.316406 389.855469 59.316406 C 390.609375 58.941406 390.972656 58.96875 390.660156 59.378906 Z M 382.539062 59.519531 C 382.195312 59.40625 381.1875 58.792969 380.613281 58.5 C 380.648438 58.460938 380.753906 58.34375 381.074219 57.972656 C 381.707031 57.234375 381.707031 57.234375 381.707031 57.234375 C 382.058594 57.808594 382.761719 58.914062 382.960938 59.21875 C 383.160156 59.523438 382.972656 59.660156 382.539062 59.519531 Z M 271.730469 104.199219 C 271.464844 104.308594 270.5 103.675781 270.375 103.296875 C 270.246094 102.921875 270.863281 102.757812 270.976562 102.90625 C 271.09375 103.050781 271.65625 103.515625 271.855469 103.6875 C 272.054688 103.855469 272 104.085938 271.730469 104.199219 Z M 201.714844 104.222656 C 201.335938 104.316406 200.582031 104.691406 200.378906 104.585938 C 200.175781 104.476562 200.136719 104.160156 200.289062 103.878906 C 200.289062 103.878906 200.289062 103.878906 200.140625 103.59375 C 200.105469 103.523438 200.105469 103.523438 200.105469 103.523438 C 200.199219 103.402344 200.714844 103.292969 201.25 103.28125 C 201.785156 103.265625 202.09375 104.132812 201.714844 104.222656 Z M 147.726562 106.019531 C 147.648438 106.167969 147.648438 106.167969 147.648438 106.167969 C 147.390625 106.265625 146.769531 106.082031 146.269531 105.761719 C 146.269531 105.761719 146.269531 105.761719 145.753906 105.515625 C 145.332031 105.316406 145.332031 105.316406 145.332031 105.316406 C 145.023438 104.707031 144.929688 104.238281 145.117188 104.269531 C 145.308594 104.304688 145.816406 104.753906 146.070312 105.125 C 146.070312 105.125 146.070312 105.125 146.421875 105.285156 C 146.734375 105.425781 146.734375 105.425781 146.734375 105.425781 C 147.292969 105.367188 147.785156 105.550781 147.824219 105.839844 C 147.824219 105.839844 147.824219 105.839844 147.726562 106.019531 Z M 132.679688 106.34375 C 132.34375 106.371094 132.476562 105.335938 132.453125 104.953125 C 132.429688 104.570312 132.476562 104.617188 132.550781 105.058594 C 132.632812 105.5 133.015625 106.316406 132.679688 106.34375 Z M 124.261719 102.90625 C 124.261719 102.90625 124.261719 102.90625 124.058594 103.105469 C 123.980469 103.179688 123.761719 103.265625 123.730469 103.242188 C 123.136719 102.78125 123.136719 102.78125 123.136719 102.78125 C 122.507812 103.027344 121.332031 102.929688 121.109375 102.757812 C 120.886719 102.585938 120.785156 102.324219 120.8125 102.28125 C 120.84375 102.234375 121.179688 102.296875 121.566406 102.421875 C 121.949219 102.546875 123.667969 102.15625 124.046875 102.21875 C 124.425781 102.28125 124.523438 102.589844 124.261719 102.90625 Z M 112.824219 103.25 C 112.410156 103.246094 111.292969 103.328125 111.058594 103.464844 C 110.824219 103.601562 109.851562 104.128906 109.648438 103.875 C 109.441406 103.617188 109.707031 103.269531 110.242188 103.097656 C 110.242188 103.097656 110.242188 103.097656 110.675781 102.902344 C 111.136719 102.695312 111.136719 102.695312 111.136719 102.695312 C 111.640625 102.78125 112.394531 102.90625 112.65625 102.832031 C 112.921875 102.753906 114.023438 102.53125 114.203125 102.785156 C 114.382812 103.042969 113.234375 103.25 112.824219 103.25 Z M 107.347656 103.746094 C 107.089844 103.601562 106.089844 103.058594 105.757812 103.054688 C 105.429688 103.050781 105.882812 102.875 106.765625 102.664062 C 106.765625 102.664062 106.765625 102.664062 107.492188 103.230469 C 107.585938 103.304688 107.585938 103.304688 107.585938 103.304688 C 108.03125 103.109375 108.394531 103.59375 108.394531 103.851562 C 108.394531 104.113281 107.605469 103.890625 107.347656 103.746094 Z M 12.949219 76.265625 C 12.625 76.191406 11.757812 75.445312 11.992188 75.042969 C 12.230469 74.640625 12.503906 74.5625 12.597656 74.867188 C 12.597656 74.867188 12.597656 74.867188 12.570312 75.082031 C 12.519531 75.535156 12.664062 75.800781 13.28125 75.839844 C 13.359375 75.84375 13.359375 75.84375 13.359375 75.84375 C 13.457031 76.148438 13.273438 76.335938 12.949219 76.265625 Z M 7.480469 83.855469 C 7.238281 84.148438 6.980469 84.636719 6.683594 84.65625 C 5.875 84.710938 6.496094 84.007812 6.164062 83.789062 C 5.765625 83.523438 5.960938 83.386719 6.214844 83.167969 C 6.539062 82.882812 6.625 83.183594 6.824219 83.269531 C 7.046875 83.359375 7.046875 83.359375 7.046875 83.359375 C 7.308594 83.417969 7.535156 83.605469 7.550781 83.777344 C 7.550781 83.777344 7.550781 83.777344 7.480469 83.855469 Z M 397.613281 52.695312 C 398.097656 52.671875 398.097656 52.671875 398.097656 52.671875 C 398.652344 52.410156 398.667969 52.0625 398.136719 51.890625 C 398.136719 51.890625 398.136719 51.890625 397.683594 51.703125 C 397.542969 51.644531 397.398438 51.453125 397.410156 51.335938 C 397.421875 51.226562 397.65625 51.03125 397.761719 51.042969 C 398.328125 51.109375 398.714844 50.902344 398.996094 50.558594 C 399.082031 50.453125 399.070312 50.203125 398.972656 50.113281 C 398.871094 50.019531 398.59375 49.988281 398.425781 50.027344 C 398.261719 50.0625 398.261719 50.0625 398.261719 50.0625 C 398.097656 50.214844 397.933594 49.878906 397.890625 49.3125 C 397.890625 49.3125 397.890625 49.3125 397.242188 48.984375 C 396.949219 48.835938 396.800781 48.464844 396.636719 48.175781 C 396.398438 47.75 396.726562 47.34375 397.34375 47.421875 C 397.65625 47.464844 397.65625 47.464844 397.65625 47.464844 C 397.730469 47.351562 397.027344 46.054688 396.441406 46.039062 C 395.855469 46.019531 394.601562 46.140625 394.351562 46.085938 C 394.105469 46.03125 393.691406 45.988281 393.433594 45.988281 C 393.433594 45.988281 393.433594 45.988281 393.195312 46.019531 C 392.773438 46.074219 392.773438 46.074219 392.773438 46.074219 C 392.332031 46.144531 391.96875 45.488281 391.96875 45.277344 C 391.96875 45.066406 392.988281 44.832031 393.347656 44.808594 C 393.707031 44.789062 393.386719 44.664062 392.632812 44.539062 C 392.632812 44.539062 392.632812 44.539062 391.957031 44.488281 C 391.164062 44.425781 390.53125 43.371094 390.871094 42.753906 C 391.1875 42.179688 391.1875 42.179688 391.1875 42.179688 C 391.089844 41.5625 390.601562 40.253906 390.765625 40.003906 C 390.933594 39.75 390.675781 39.398438 390.195312 39.21875 C 390.195312 39.21875 390.195312 39.21875 389.960938 38.988281 C 389.558594 38.585938 389.308594 39.796875 388.917969 39.003906 C 388.785156 38.734375 388.785156 38.734375 388.785156 38.734375 C 388.429688 38.503906 387.914062 38.207031 387.773438 38.171875 C 387.636719 38.136719 388.703125 37.777344 389.09375 37.667969 C 389.484375 37.558594 389.398438 35.207031 389.007812 34.339844 C 388.617188 33.472656 389.773438 33.328125 390.25 33.507812 C 390.726562 33.691406 391.09375 33.503906 391.066406 33.09375 C 391.066406 33.09375 391.066406 33.09375 390.894531 32.890625 C 390.632812 32.574219 390.632812 32.574219 390.632812 32.574219 C 390.230469 32.285156 389.945312 31.757812 389.964844 31.644531 C 389.980469 31.53125 389.695312 31.476562 389.332031 31.515625 C 389.332031 31.515625 389.332031 31.515625 389.003906 31.566406 C 388.945312 31.574219 388.90625 31.671875 388.851562 31.675781 C 388.753906 31.6875 388.589844 31.679688 388.566406 31.636719 C 388.515625 31.542969 388.46875 31.355469 388.527344 31.324219 C 388.78125 31.171875 388.78125 31.171875 388.78125 31.171875 C 389.085938 31.035156 389.398438 30.816406 389.382812 30.738281 C 389.371094 30.660156 389.230469 30.597656 389.070312 30.601562 C 389.070312 30.601562 389.070312 30.601562 388.925781 30.589844 C 388.789062 30.582031 388.789062 30.582031 388.789062 30.582031 C 388.648438 30.554688 388.390625 29.910156 388.222656 29.144531 C 388.222656 29.144531 388.222656 29.144531 388.101562 28.445312 C 388.042969 28.113281 388.042969 28.113281 388.042969 28.113281 C 388.023438 27.761719 388.1875 27.167969 388.410156 26.792969 C 388.410156 26.792969 388.410156 26.792969 387.839844 26.566406 C 387.828125 26.5625 387.828125 26.5625 387.828125 26.5625 C 387.964844 26.308594 387.730469 25.980469 387.597656 25.9375 C 387.464844 25.890625 386.828125 25.660156 386.183594 25.425781 C 386.183594 25.425781 386.183594 25.425781 386.097656 25.117188 C 385.90625 24.4375 384.902344 24.390625 384.796875 24.039062 C 384.585938 23.335938 384.585938 23.335938 384.585938 23.335938 C 383.90625 23.164062 382.148438 22.523438 381.570312 22.636719 C 380.996094 22.753906 380.484375 22.300781 380.476562 22.144531 C 380.464844 21.992188 379.964844 22.019531 379.816406 22.0625 C 379.667969 22.105469 378.265625 21.507812 377.707031 21.503906 C 377.144531 21.5 376.421875 21.449219 376.246094 21.503906 C 376.070312 21.558594 375.042969 21.960938 375.082031 21.679688 C 375.125 21.398438 374.71875 21.453125 374.515625 21.519531 C 374.316406 21.585938 373.46875 21.347656 373.1875 21.390625 C 372.910156 21.433594 371.421875 21.195312 370.957031 21.050781 C 370.492188 20.90625 369.53125 20.636719 368.816406 20.453125 C 368.816406 20.453125 368.816406 20.453125 368.492188 19.835938 C 368.394531 19.644531 367.859375 19.546875 367.507812 19.511719 C 367.289062 19.492188 366.976562 19.792969 366.8125 19.734375 C 366.242188 19.542969 367.128906 19.296875 366.878906 19.191406 C 366.359375 18.980469 365.558594 18.617188 365.257812 18.78125 C 364.601562 19.140625 364.0625 18.835938 363.6875 18.6875 C 362.691406 18.296875 361.585938 18.1875 360.699219 18.449219 C 359.855469 18.695312 359.855469 18.695312 359.855469 18.695312 C 359.453125 18.332031 359.058594 18.519531 358.976562 19.113281 C 358.976562 19.113281 358.976562 19.113281 358.074219 18.558594 C 357.585938 18.257812 357.585938 18.257812 357.585938 18.257812 C 356.257812 18.21875 355.359375 18.414062 355.433594 18.5 C 355.503906 18.585938 354.472656 18.617188 354.203125 18.421875 C 353.929688 18.230469 353.222656 18.164062 353.039062 18.195312 C 352.859375 18.226562 351.898438 17.949219 352.066406 18.277344 C 352.230469 18.601562 351.390625 18.386719 351.175781 18.277344 C 350.960938 18.167969 350.144531 17.820312 349.949219 17.945312 C 349.757812 18.070312 349.503906 18.136719 349.4375 18.144531 C 349.371094 18.148438 348.976562 18.421875 348.558594 18.75 C 348.558594 18.75 348.558594 18.75 347.847656 18.503906 C 347.242188 18.292969 347.242188 18.292969 347.242188 18.292969 C 346.613281 18.675781 345.628906 19.464844 345.355469 19.324219 C 345.082031 19.1875 344.386719 19.097656 343.808594 19.121094 C 343.808594 19.121094 343.808594 19.121094 343.328125 18.902344 C 343.222656 18.855469 343.222656 18.855469 343.222656 18.855469 C 342.996094 18.964844 341.625 18.542969 341.128906 18.613281 C 340.632812 18.679688 340.089844 18.78125 340.023438 18.847656 C 339.960938 18.910156 340.101562 19.347656 340.1875 19.519531 C 340.273438 19.695312 339.734375 19.628906 338.992188 19.371094 C 338.992188 19.371094 338.992188 19.371094 338.910156 19.460938 C 338.378906 20.042969 338.378906 20.042969 338.378906 20.042969 C 337.617188 19.96875 336.832031 19.957031 336.734375 19.941406 C 336.640625 19.929688 336.304688 19.703125 335.988281 19.445312 C 335.988281 19.445312 335.988281 19.445312 335.574219 19.421875 C 335.015625 19.390625 334.183594 19.226562 333.941406 19.453125 C 333.355469 19.996094 333.355469 19.996094 333.355469 19.996094 C 332.816406 19.757812 332.78125 19.953125 332.960938 20.128906 C 333.144531 20.304688 331.941406 20.054688 331.78125 19.933594 C 331.621094 19.8125 331.34375 19.609375 331.28125 19.582031 C 331.21875 19.550781 330.457031 19.914062 330.148438 19.859375 C 329.835938 19.800781 328.902344 19.738281 328.675781 19.632812 C 328.445312 19.53125 327.515625 19.351562 327.476562 19.613281 C 327.433594 19.875 326.777344 20.121094 326.019531 20.160156 C 326.019531 20.160156 326.019531 20.160156 325.621094 19.898438 C 324.867188 19.398438 324.867188 19.398438 324.867188 19.398438 C 324.101562 19.605469 323.273438 19.738281 323.027344 19.699219 C 323.027344 19.699219 323.027344 19.699219 322.867188 19.769531 C 322.53125 19.921875 322.53125 19.921875 322.53125 19.921875 C 322.152344 19.945312 321.523438 20.089844 321.144531 20.238281 C 321.144531 20.238281 321.144531 20.238281 320.621094 20.15625 C 320.09375 20.070312 320.09375 20.070312 320.09375 20.070312 C 319.433594 20.023438 318.675781 19.828125 318.457031 19.617188 C 318.234375 19.402344 317.402344 19.761719 317.191406 19.929688 C 316.984375 20.101562 316.527344 19.875 316.382812 19.691406 C 316.238281 19.507812 315.773438 19.617188 315.351562 19.933594 C 315.351562 19.933594 315.351562 19.933594 315.039062 19.910156 C 314.632812 19.878906 314.632812 19.878906 314.632812 19.878906 C 314.191406 19.820312 313.378906 19.875 312.820312 19.992188 C 312.820312 19.992188 312.820312 19.992188 312.3125 20.097656 C 312.183594 20.125 312.183594 20.125 312.183594 20.125 C 312.027344 20.109375 311.328125 19.890625 311.097656 19.917969 C 310.867188 19.949219 310.289062 19.894531 309.8125 19.804688 C 309.8125 19.804688 309.8125 19.804688 309.566406 19.945312 C 308.714844 20.425781 308.296875 19.960938 307.796875 19.558594 C 307.734375 19.511719 307.734375 19.511719 307.734375 19.511719 C 307.609375 19.5 307.390625 19.984375 307.347656 20.167969 C 307.304688 20.359375 306.5625 20.074219 306.277344 20.128906 C 305.988281 20.183594 304.816406 20.515625 304.4375 20.578125 C 304.058594 20.640625 303.320312 20.515625 302.796875 20.300781 C 302.796875 20.300781 302.796875 20.300781 302.304688 20.273438 C 301.921875 20.25 301.921875 20.25 301.921875 20.25 C 301.488281 20.25 301.039062 20.710938 301 20.914062 C 300.957031 21.113281 300.3125 20.417969 300.183594 20.453125 C 300.058594 20.492188 298.632812 20.871094 298.140625 20.761719 C 297.648438 20.652344 296.730469 20.453125 296.59375 20.527344 C 296.460938 20.601562 296.03125 20.777344 295.871094 20.777344 C 295.710938 20.777344 295.28125 20.628906 294.914062 20.453125 C 294.914062 20.453125 294.914062 20.453125 294.417969 20.757812 C 294.046875 20.984375 294.046875 20.984375 294.046875 20.984375 C 293.40625 21.027344 292.578125 21.09375 292.207031 21.136719 C 292.207031 21.136719 292.207031 21.136719 291.925781 21.039062 C 291.753906 20.976562 291.753906 20.976562 291.753906 20.976562 C 291.640625 20.632812 291.339844 20.832031 291.285156 20.953125 C 291.234375 21.074219 290.734375 20.691406 290.503906 20.601562 C 290.269531 20.511719 288.625 20.609375 288.066406 20.550781 C 287.507812 20.492188 286.523438 20.8125 286.269531 20.753906 C 286.019531 20.695312 285.039062 20.917969 284.726562 20.992188 C 284.414062 21.0625 283.355469 21.148438 283.058594 21.0625 C 282.765625 20.980469 281.496094 20.65625 281.484375 20.941406 C 281.476562 21.222656 281.378906 21.394531 281.269531 21.324219 C 281.269531 21.324219 281.269531 21.324219 281.171875 21.257812 C 280.1875 20.609375 280.1875 20.609375 280.1875 20.609375 C 279.53125 21.03125 278.691406 21.371094 278.324219 21.359375 C 278.324219 21.359375 278.324219 21.359375 278.316406 21.3125 C 278.246094 20.761719 278.050781 20.613281 277.394531 20.941406 C 277.1875 21.050781 277.1875 21.050781 277.1875 21.050781 C 276.769531 20.921875 276.132812 20.96875 275.765625 21.15625 C 275.765625 21.15625 275.765625 21.15625 275.3125 21.144531 C 274.65625 21.125 274.019531 21.246094 273.335938 21.214844 C 272.664062 21.183594 272.664062 21.183594 272.664062 21.183594 C 271.859375 21.199219 270.367188 21.824219 269.949219 21.820312 C 269.527344 21.820312 268.136719 21.464844 267.722656 21.324219 C 267.308594 21.183594 266.871094 21.621094 266.839844 21.796875 C 266.804688 21.972656 266.53125 21.761719 266.230469 21.328125 C 266.230469 21.328125 266.230469 21.328125 265.519531 21.691406 C 265.144531 21.886719 265.144531 21.886719 265.144531 21.886719 C 264.644531 21.984375 263.875 22.199219 263.6875 22.289062 C 263.496094 22.378906 262.402344 22.226562 262.03125 22.203125 C 261.660156 22.179688 260.609375 21.726562 260.324219 21.890625 C 260.039062 22.050781 258.855469 22.253906 258.5 22.324219 C 258.140625 22.398438 257.46875 22.558594 257.011719 22.679688 C 257.011719 22.679688 257.011719 22.679688 256.632812 22.285156 C 256.394531 22.039062 256.394531 22.039062 256.394531 22.039062 C 256.113281 22.265625 255.851562 22.714844 255.808594 23.027344 C 255.808594 23.027344 255.808594 23.027344 255.507812 22.679688 C 255.003906 22.097656 255.003906 22.097656 255.003906 22.097656 C 254.527344 22.417969 253.730469 22.613281 253.230469 22.535156 C 253.230469 22.535156 253.230469 22.535156 252.757812 22.511719 C 252.199219 22.488281 251.632812 22.507812 251.070312 22.507812 C 249.945312 22.507812 249.945312 22.507812 249.945312 22.507812 C 248.703125 22.507812 247.160156 22.496094 246.507812 22.480469 C 246.507812 22.480469 246.507812 22.480469 245.941406 22.550781 C 245.382812 22.617188 246.625 23.019531 245.859375 23.199219 C 245.132812 23.367188 245.132812 23.367188 245.132812 23.367188 C 244.890625 22.828125 244.160156 22.972656 244.023438 23.125 C 243.886719 23.273438 242.871094 23.546875 242.792969 23.402344 C 242.714844 23.253906 241.734375 22.832031 241.355469 22.835938 C 240.980469 22.84375 239.605469 23.203125 239.265625 22.976562 C 238.929688 22.746094 238.566406 23.035156 238.53125 23.226562 C 238.496094 23.414062 238.082031 23.195312 237.957031 23.082031 C 237.835938 22.972656 237.335938 22.792969 236.847656 22.683594 C 236.847656 22.683594 236.847656 22.683594 236.867188 23.273438 C 236.867188 23.359375 236.867188 23.359375 236.867188 23.359375 C 236.753906 23.453125 235.476562 22.847656 234.945312 22.925781 C 234.410156 23.007812 234.078125 22.855469 234.210938 22.589844 C 234.210938 22.589844 234.210938 22.589844 234.183594 22.578125 C 233.367188 22.238281 233.367188 22.238281 233.367188 22.238281 C 233.332031 22.753906 232.882812 22.859375 232.722656 22.738281 C 232.5625 22.617188 232.066406 22.804688 231.925781 22.910156 C 231.785156 23.019531 231.390625 23.144531 231.25 23.101562 C 231.109375 23.058594 230.898438 22.734375 230.78125 22.382812 C 230.78125 22.382812 230.78125 22.382812 230.257812 22.605469 C 230.222656 22.621094 230.464844 23.023438 230.527344 23.257812 C 230.546875 23.332031 230.546875 23.332031 230.546875 23.332031 C 230.4375 23.433594 229.910156 23.214844 229.746094 23.097656 C 229.578125 22.980469 228.589844 23.378906 228.367188 23.125 C 228.144531 22.875 227.675781 22.578125 227.53125 22.59375 C 227.386719 22.605469 226.535156 22.671875 225.640625 22.738281 C 225.640625 22.738281 225.640625 22.738281 224.847656 22.859375 C 224.394531 22.925781 224.394531 22.925781 224.394531 22.925781 C 223.90625 22.886719 223.054688 22.769531 222.503906 22.671875 C 222.503906 22.671875 222.503906 22.671875 221.945312 22.824219 C 221.617188 22.910156 221.144531 22.605469 220.796875 22.675781 C 220.175781 22.804688 220.175781 22.804688 220.175781 22.804688 C 219.609375 22.660156 218.28125 23 217.972656 22.882812 C 217.664062 22.769531 217.1875 22.726562 217.015625 22.691406 C 216.839844 22.65625 216.375 22.726562 215.984375 22.847656 C 215.984375 22.847656 215.984375 22.847656 215.71875 22.863281 C 215.160156 22.902344 214.488281 22.257812 214.039062 23.035156 C 214.007812 23.089844 214.007812 23.089844 214.007812 23.089844 C 213.917969 23.09375 213.457031 22.621094 213.320312 22.449219 C 213.179688 22.277344 212.535156 22.472656 212.386719 22.621094 C 212.242188 22.773438 211.34375 22.738281 211.316406 22.550781 C 211.289062 22.363281 210.894531 22.511719 210.746094 22.632812 C 210.597656 22.753906 210.273438 22.667969 210.027344 22.445312 C 210.027344 22.445312 210.027344 22.445312 209.761719 22.285156 C 209.617188 22.199219 209.617188 22.199219 209.617188 22.199219 C 209.386719 22.183594 208.945312 22.410156 208.636719 22.699219 C 208.636719 22.699219 208.636719 22.699219 208.054688 22.535156 C 207.773438 22.457031 207.328125 22.804688 207.019531 22.746094 C 206.71875 22.691406 206.71875 22.691406 206.71875 22.691406 C 206.433594 22.375 205.753906 22.785156 205.632812 22.800781 C 205.511719 22.816406 204.453125 22.007812 203.996094 22.199219 C 203.539062 22.386719 202.207031 22.550781 201.847656 22.535156 C 201.484375 22.523438 199.925781 23.304688 199.363281 23.140625 C 198.796875 22.980469 196.769531 22.839844 196.4375 22.921875 C 196.109375 23 195.515625 23.105469 195.386719 23.089844 C 195.253906 23.074219 194.757812 22.914062 194.28125 22.730469 C 194.28125 22.730469 194.28125 22.730469 193.679688 22.8125 C 192.898438 22.914062 192.058594 22.726562 191.246094 22.671875 C 191.109375 22.664062 190.851562 22.703125 190.851562 22.722656 C 190.832031 23.46875 190.539062 23.015625 190.1875 22.871094 C 189.851562 22.734375 189.851562 22.734375 189.851562 22.734375 C 189.414062 22.664062 188.765625 22.871094 188.65625 22.96875 C 188.546875 23.070312 188.003906 23.03125 187.449219 22.886719 C 187.449219 22.886719 187.449219 22.886719 186.921875 22.855469 C 186.300781 22.816406 186.300781 22.816406 186.300781 22.816406 C 185.636719 22.777344 184.277344 22.484375 184.0625 22.617188 C 183.851562 22.75 183.171875 22.78125 183.007812 22.894531 C 182.847656 23.007812 182.492188 23.101562 182.21875 23.101562 C 182.21875 23.101562 182.21875 23.101562 182 23.039062 C 181.445312 22.882812 181.445312 22.882812 181.445312 22.882812 C 180.851562 22.699219 179.972656 22.695312 179.488281 22.875 C 179.488281 22.875 179.488281 22.875 179.011719 22.523438 C 178.96875 22.488281 178.679688 22.734375 178.515625 22.722656 C 178.234375 22.703125 178.234375 22.703125 178.234375 22.703125 C 177.941406 22.609375 177.207031 22.761719 177.042969 22.898438 C 176.878906 23.03125 176.691406 23.148438 176.65625 23.140625 C 176.625 23.132812 176.234375 22.828125 176.09375 22.714844 C 175.953125 22.601562 175.023438 23.039062 174.644531 22.953125 C 174.265625 22.867188 172.859375 22.488281 172.484375 22.566406 C 172.105469 22.640625 171.65625 22.710938 171.601562 22.726562 C 171.550781 22.738281 170.546875 22.238281 170.480469 22.566406 C 170.410156 22.894531 170.394531 22.78125 170.445312 22.316406 C 170.445312 22.316406 170.445312 22.316406 169.75 22.683594 C 168.832031 23.167969 168.832031 23.167969 168.832031 23.167969 C 168.9375 22.671875 168.730469 22.164062 168.375 22.035156 C 168.375 22.035156 168.375 22.035156 168.089844 22.28125 C 168.03125 22.335938 168.03125 22.335938 168.03125 22.335938 C 167.273438 22.617188 166.042969 22.664062 165.84375 22.542969 C 165.644531 22.421875 165.335938 22.324219 165.15625 22.320312 C 165.15625 22.320312 165.15625 22.320312 165.078125 22.386719 C 164.359375 22.957031 164.359375 22.957031 164.359375 22.957031 C 164.023438 22.773438 163.480469 22.414062 163.410156 22.316406 C 163.339844 22.21875 162.953125 22.34375 162.550781 22.59375 C 162.550781 22.59375 162.550781 22.59375 162.246094 22.785156 L 160.902344 22.382812 C 160.453125 22.167969 160.453125 22.167969 160.453125 22.167969 C 159.90625 22.164062 159.191406 22.488281 159.082031 22.617188 C 158.972656 22.75 158.691406 22.480469 158.636719 22.371094 C 158.582031 22.265625 157.984375 22.421875 157.75 22.378906 C 157.519531 22.335938 156.835938 22.242188 156.523438 22.363281 C 156.207031 22.480469 154.988281 23.070312 155.023438 22.765625 C 155.0625 22.464844 154.476562 22.566406 154.164062 22.570312 C 153.851562 22.578125 152.546875 22.207031 151.269531 21.746094 C 151.269531 21.746094 151.269531 21.746094 150.304688 22.835938 C 150.292969 22.847656 150.292969 22.847656 150.292969 22.847656 C 149.945312 22.664062 148.929688 23.191406 148.535156 23.046875 C 148.140625 22.902344 146.773438 23.03125 146.261719 22.960938 C 145.75 22.894531 144.152344 22.917969 143.765625 23.085938 C 143.382812 23.253906 142.960938 23.433594 142.933594 23.433594 C 142.90625 23.433594 142.484375 22.957031 142.339844 22.785156 C 142.199219 22.617188 141.664062 22.816406 141.527344 22.925781 C 141.386719 23.039062 140.691406 22.90625 139.980469 22.636719 C 139.980469 22.636719 139.980469 22.636719 139.316406 23.175781 C 139.203125 23.265625 139.203125 23.265625 139.203125 23.265625 C 138.851562 23.164062 138.054688 23.058594 137.433594 23.03125 C 137.433594 23.03125 137.433594 23.03125 136.996094 22.824219 C 136.492188 22.589844 136.316406 23.519531 135.773438 22.953125 C 135.644531 22.820312 135.019531 22.921875 134.671875 23.027344 C 134.007812 23.230469 134.007812 23.230469 134.007812 23.230469 C 133.792969 22.851562 133.285156 22.558594 133.148438 22.621094 C 133.011719 22.683594 132.398438 22.933594 131.78125 23.179688 C 131.78125 23.179688 131.78125 23.179688 131.234375 23.160156 C 130.539062 23.132812 130.539062 23.132812 130.539062 23.132812 C 129.785156 22.886719 128.984375 22.691406 128.761719 22.695312 C 128.761719 22.695312 128.761719 22.695312 128.761719 22.703125 C 128.773438 23.351562 128.773438 23.351562 128.773438 23.351562 C 128.402344 23.101562 127.660156 22.847656 127.417969 22.925781 C 127.179688 23.003906 126.839844 23.007812 126.667969 22.933594 C 126.667969 22.933594 126.667969 22.933594 126.539062 22.957031 C 126.320312 22.992188 126.128906 23.140625 125.910156 23.1875 C 125.710938 23.226562 125.492188 23.195312 125.277344 23.195312 C 124.996094 23.195312 124.996094 23.195312 124.996094 23.195312 C 124.6875 23.191406 123.847656 23.09375 123.617188 23.066406 C 123.386719 23.039062 122.78125 22.9375 122.273438 22.84375 C 122.273438 22.84375 122.273438 22.84375 122.089844 22.988281 C 121.527344 23.4375 121.527344 23.4375 121.527344 23.4375 C 121.164062 23.082031 120.125 22.980469 120.089844 23.160156 C 120.058594 23.34375 119.277344 23.183594 118.957031 23.179688 C 118.640625 23.175781 118.074219 23.226562 117.699219 23.289062 C 117.699219 23.289062 117.699219 23.289062 117.585938 23.179688 C 117.011719 22.625 117.011719 22.625 117.011719 22.625 C 116.25 22.757812 114.742188 22.921875 113.664062 22.988281 C 113.664062 22.988281 113.664062 22.988281 112.683594 23.015625 C 112.351562 23.027344 111.789062 22.78125 111.714844 22.871094 C 111.261719 23.394531 111.261719 23.394531 111.261719 23.394531 C 110.878906 23.105469 109.25 23.335938 108.726562 23.296875 C 108.207031 23.257812 107.128906 23.289062 106.335938 23.363281 C 106.335938 23.363281 106.335938 23.363281 105.738281 22.878906 C 105.667969 22.820312 105.667969 22.820312 105.667969 22.820312 C 105.464844 22.835938 105.101562 23.1875 105.023438 23.324219 C 104.941406 23.460938 104.671875 23.21875 104.601562 23.097656 C 104.53125 22.976562 103.652344 23.152344 102.644531 23.488281 C 102.644531 23.488281 102.644531 23.488281 101.808594 23.367188 C 101.171875 23.277344 101.171875 23.277344 101.171875 23.277344 C 100.636719 23.40625 99.339844 22.992188 99.160156 23.273438 C 98.984375 23.558594 98.738281 23.308594 98.691406 23.097656 C 98.648438 22.882812 98.335938 23.1875 98.261719 23.320312 C 98.1875 23.453125 97.082031 22.882812 96.839844 23.214844 C 96.597656 23.550781 96.121094 23.511719 96.023438 23.40625 C 95.925781 23.304688 95.195312 23.117188 94.40625 22.992188 C 94.40625 22.992188 94.40625 22.992188 93.988281 23.238281 C 93.117188 23.746094 92.132812 23.667969 91.40625 23.472656 C 90.5 23.234375 90.5 23.234375 90.5 23.234375 C 89.675781 23.390625 88.285156 23.332031 88.199219 23.507812 C 88.113281 23.6875 87.753906 23.734375 87.644531 23.699219 C 87.535156 23.660156 87.320312 23.921875 87.273438 24.03125 C 87.226562 24.140625 86.71875 23.902344 86.550781 23.785156 C 86.386719 23.667969 85.765625 23.78125 85.171875 24.039062 C 85.171875 24.039062 85.171875 24.039062 85.011719 23.800781 C 84.628906 23.246094 84.226562 24.117188 83.878906 23.679688 C 83.722656 23.480469 83.722656 23.480469 83.722656 23.480469 C 83.242188 23.511719 82.222656 23.832031 81.984375 23.945312 C 81.746094 24.058594 81.164062 23.832031 80.996094 23.695312 C 80.828125 23.558594 80.367188 23.816406 80.261719 23.9375 C 80.15625 24.058594 79.40625 24.140625 79.371094 23.988281 C 79.335938 23.839844 79.140625 23.785156 78.941406 23.867188 C 78.941406 23.867188 78.941406 23.867188 78.757812 23.875 C 78.125 23.894531 78.125 23.894531 78.125 23.894531 C 77.425781 23.894531 76.128906 23.996094 75.863281 24.0625 C 75.601562 24.132812 74.972656 24.359375 74.464844 24.570312 C 74.464844 24.570312 74.464844 24.570312 73.964844 24.566406 C 73.691406 24.566406 73.691406 24.566406 73.691406 24.566406 C 73.402344 24.535156 72.824219 24.351562 72.410156 24.164062 C 72.410156 24.164062 72.410156 24.164062 71.949219 24.511719 C 71.753906 24.65625 71.753906 24.65625 71.753906 24.65625 C 71.304688 24.605469 69.070312 24.535156 68.457031 24.648438 C 67.847656 24.761719 66.96875 24.910156 66.820312 24.90625 C 66.671875 24.898438 64.828125 24.042969 64.117188 24.234375 C 63.402344 24.425781 62.675781 24.65625 62.503906 24.746094 C 62.503906 24.746094 62.503906 24.746094 62.324219 24.820312 C 61.992188 24.953125 61.441406 25.253906 61.339844 25.175781 C 60.34375 24.40625 60.34375 24.40625 60.34375 24.40625 C 60.363281 25.019531 60.105469 25.273438 59.960938 25.128906 C 59.816406 24.988281 58.871094 25.015625 58.855469 25.21875 C 58.835938 25.421875 58.195312 25.289062 57.917969 25.269531 C 57.644531 25.25 57.035156 25.300781 56.566406 25.378906 C 56.566406 25.378906 56.566406 25.378906 56.410156 25.234375 C 55.503906 24.414062 55.503906 24.414062 55.503906 24.414062 C 55.484375 25.0625 55.214844 25.410156 55.09375 25.320312 C 54.972656 25.230469 54.5625 25.570312 54.441406 25.738281 C 54.316406 25.90625 53.824219 25.59375 53.34375 25.042969 C 53.34375 25.042969 53.34375 25.042969 52.707031 25.636719 C 52.621094 25.722656 52.621094 25.722656 52.621094 25.722656 C 52.492188 25.78125 51.8125 25.933594 51.109375 26.050781 C 51.109375 26.050781 51.109375 26.050781 50.484375 26.199219 C 50.402344 26.21875 50.402344 26.21875 50.402344 26.21875 C 50.316406 26.175781 50.140625 25.894531 50.105469 25.808594 C 50.070312 25.726562 49.953125 25.746094 49.84375 25.855469 C 49.84375 25.855469 49.84375 25.855469 49.757812 25.960938 C 49.679688 26.054688 49.679688 26.054688 49.679688 26.054688 C 49.601562 26.171875 49.238281 25.953125 49.152344 25.863281 C 49.066406 25.777344 48.199219 26.132812 47.851562 26.070312 C 47.503906 26.003906 46.339844 26.101562 46.007812 26.074219 C 45.675781 26.046875 45.320312 26.054688 45.21875 26.085938 C 45.21875 26.085938 45.21875 26.085938 45.117188 26.109375 C 44.796875 26.171875 44.796875 26.171875 44.796875 26.171875 C 44.488281 26.304688 43.824219 26.589844 43.320312 26.804688 C 43.320312 26.804688 43.320312 26.804688 43.082031 26.488281 C 42.597656 25.84375 42.597656 25.84375 42.597656 25.84375 C 42.039062 26.117188 41.03125 26.199219 40.351562 26.027344 C 40.351562 26.027344 40.351562 26.027344 40.382812 26.863281 C 40.382812 26.894531 40.382812 26.894531 40.382812 26.894531 C 40.308594 26.929688 38.914062 26.386719 38.507812 26.695312 C 38.105469 27.007812 37.527344 27.296875 37.417969 27.273438 C 37.3125 27.253906 36.621094 27.058594 35.886719 26.84375 C 35.886719 26.84375 35.886719 26.84375 35.710938 27.011719 C 35.253906 27.457031 34.65625 26.816406 34.230469 27.289062 C 34.097656 27.4375 33.390625 27.886719 32.921875 27.328125 C 32.90625 27.3125 32.460938 27.453125 32.460938 27.523438 C 32.4375 28.230469 32.179688 27.800781 31.792969 27.707031 C 31.417969 27.617188 31.417969 27.617188 31.417969 27.617188 C 30.898438 27.640625 28.886719 27.328125 28.289062 27.464844 C 27.691406 27.601562 27.09375 27.757812 26.960938 27.8125 C 26.960938 27.8125 26.960938 27.8125 26.957031 27.875 C 26.882812 28.691406 26.882812 28.691406 26.882812 28.691406 C 26.28125 28.433594 25.574219 28.1875 25.304688 28.148438 C 25.304688 28.148438 25.304688 28.148438 25.246094 28.445312 C 25.230469 28.527344 25.230469 28.527344 25.230469 28.527344 C 25.117188 28.609375 24.464844 28.351562 24.234375 28.4375 C 24.003906 28.519531 23.304688 28.664062 23.011719 28.566406 C 22.722656 28.46875 22.144531 29.097656 22.019531 29.355469 C 21.898438 29.617188 21.375 29.492188 21.261719 29.40625 C 21.152344 29.324219 20.292969 29.144531 19.996094 29.136719 C 19.695312 29.128906 19.1875 29.75 18.9375 29.621094 C 18.6875 29.492188 18.113281 29.414062 17.660156 29.445312 C 17.660156 29.445312 17.660156 29.445312 17.414062 29.753906 C 17.167969 30.066406 17.167969 30.066406 17.167969 30.066406 C 16.875 30.523438 16.105469 30.164062 15.84375 30.003906 C 15.582031 29.847656 14.261719 30.191406 13.898438 30.042969 C 13.539062 29.890625 13.015625 29.800781 12.734375 29.835938 C 12.734375 29.835938 12.734375 29.835938 12.601562 29.964844 C 12.355469 30.203125 12.355469 30.203125 12.355469 30.203125 C 12.046875 30.707031 11.425781 30.480469 11.320312 30.292969 C 11.210938 30.105469 10.894531 30.402344 10.839844 30.511719 C 10.785156 30.617188 10.222656 30.535156 10.140625 30.691406 C 10.058594 30.84375 9.859375 30.929688 9.699219 30.882812 C 9.699219 30.882812 9.699219 30.882812 9.546875 30.863281 C 9.214844 30.820312 8.882812 30.792969 8.550781 30.78125 C 8.519531 30.777344 8.519531 30.777344 8.519531 30.777344 C 8.480469 30.902344 8.824219 31.113281 8.964844 31.152344 C 9.101562 31.191406 8.652344 31.625 7.964844 32.113281 C 7.964844 32.113281 7.964844 32.113281 7.710938 31.675781 C 7.21875 30.828125 7.21875 30.828125 7.21875 30.828125 C 6.503906 31.015625 5.804688 31.664062 5.761719 31.851562 C 5.71875 32.035156 5.316406 31.902344 4.867188 31.554688 C 4.867188 31.554688 4.867188 31.554688 4.453125 32.050781 C 3.972656 32.621094 3.484375 32.542969 2.929688 32.136719 C 2.875 32.097656 2.875 32.097656 2.875 32.097656 C 2.664062 32.167969 3.097656 33.070312 2.800781 33.308594 C 2.503906 33.550781 1.800781 33.644531 1.636719 33.609375 C 1.472656 33.574219 1.441406 33.691406 1.566406 33.871094 C 1.566406 33.871094 1.566406 33.871094 1.585938 34.039062 C 1.605469 34.1875 1.476562 34.339844 1.4375 34.496094 C 1.292969 35.105469 1.292969 35.105469 1.292969 35.105469 C 1.695312 35.636719 1.863281 36.160156 1.804688 36.195312 C 1.746094 36.226562 1.464844 36.375 1.183594 36.527344 C 1.183594 36.527344 1.183594 36.527344 1.207031 36.613281 C 1.382812 37.273438 1.726562 36.5625 1.773438 36.621094 C 1.953125 36.828125 2.5625 36.816406 2.222656 37.324219 C 1.863281 37.871094 1.863281 37.871094 1.863281 37.871094 C 2.414062 37.65625 2.875 37.832031 2.882812 38.257812 C 2.882812 38.257812 2.882812 38.257812 2.867188 38.484375 C 2.820312 39.085938 2.800781 39.621094 3.699219 39.921875 C 4.054688 40.039062 4.054688 40.039062 4.054688 40.039062 C 4.300781 40.460938 4.457031 41.140625 4.398438 41.550781 C 4.398438 41.550781 4.398438 41.550781 4.566406 41.894531 C 4.609375 41.976562 4.609375 41.976562 4.609375 41.976562 C 4.75 42.042969 5.546875 42.648438 6.382812 43.328125 C 6.382812 43.328125 6.382812 43.328125 6.253906 44.964844 C 6.238281 45.125 6.238281 45.125 6.238281 45.125 C 6.285156 45.347656 6.894531 45.542969 7.59375 45.558594 C 7.59375 45.558594 7.59375 45.558594 8.210938 45.515625 C 8.535156 45.496094 8.535156 45.496094 8.535156 45.496094 C 9.109375 45.300781 9.167969 45.578125 8.664062 46.109375 C 8.664062 46.109375 8.664062 46.109375 8.371094 46.460938 C 8.316406 46.527344 8.316406 46.527344 8.316406 46.527344 C 8.371094 46.667969 8.554688 46.742188 8.714844 46.695312 C 8.714844 46.695312 8.714844 46.695312 8.867188 46.664062 C 9.054688 46.628906 9.054688 46.628906 9.054688 46.628906 C 9.265625 46.601562 9.484375 46.757812 9.542969 46.976562 C 9.542969 46.976562 9.542969 46.976562 9.503906 47.164062 C 9.460938 47.367188 9.460938 47.367188 9.460938 47.367188 C 9.316406 47.574219 8.882812 48.445312 9.007812 48.699219 C 9.136719 48.957031 9.316406 49.226562 9.34375 49.25 C 9.371094 49.269531 9.605469 49.464844 9.6875 49.535156 C 9.769531 49.601562 10.3125 49.03125 10.628906 49.070312 C 10.945312 49.113281 10.96875 50.15625 10.679688 51.394531 C 10.679688 51.394531 10.679688 51.394531 12.871094 51.472656 C 13.011719 51.480469 13.273438 52.097656 13.191406 52.375 C 13.117188 52.632812 13.117188 52.632812 13.117188 52.632812 C 12.625 52.621094 11.386719 52.226562 11.214844 52.46875 C 11.042969 52.710938 11.386719 53.300781 11.550781 53.433594 C 11.714844 53.566406 12.757812 53.382812 13.085938 53.277344 C 13.417969 53.171875 13.871094 52.996094 14.09375 52.894531 C 14.09375 52.894531 14.09375 52.894531 14.269531 52.769531 C 14.386719 52.6875 14.386719 52.6875 14.386719 52.6875 C 14.472656 52.554688 14.8125 52.683594 14.910156 52.773438 C 15.011719 52.863281 15.273438 53.257812 15.492188 53.652344 C 15.492188 53.652344 15.492188 53.652344 15.144531 54.046875 C 15.109375 54.085938 15.109375 54.085938 15.109375 54.085938 C 15.363281 54.285156 16.625 54.777344 17.035156 54.886719 C 17.441406 55 18.003906 54.84375 18.285156 54.542969 C 18.285156 54.542969 18.285156 54.542969 18.464844 55.019531 C 18.585938 55.339844 18.636719 55.5625 19.085938 55.488281 C 20.078125 55.328125 20.078125 55.328125 20.078125 55.328125 C 21.027344 55.671875 22.261719 56.035156 22.425781 56.078125 C 22.59375 56.121094 23.621094 55.9375 23.886719 56.082031 C 24.152344 56.222656 23.535156 56.671875 22.519531 57.078125 C 22.519531 57.078125 22.519531 57.078125 22.621094 58.140625 C 22.625 58.164062 22.394531 58.21875 22.265625 58.238281 C 21.625 58.355469 21.625 58.355469 21.625 58.355469 C 21.445312 58.816406 20.980469 59.757812 21.214844 59.820312 C 21.449219 59.886719 21.929688 59.84375 22.039062 59.804688 C 22.148438 59.769531 22.1875 59.914062 22.125 60.128906 C 22.125 60.128906 22.125 60.128906 22.058594 60.324219 C 21.996094 60.511719 21.996094 60.511719 21.996094 60.511719 C 21.917969 60.710938 22.183594 60.710938 22.585938 60.511719 C 22.585938 60.511719 22.585938 60.511719 22.902344 60.363281 C 23.039062 60.296875 23.039062 60.296875 23.039062 60.296875 C 23.328125 60.421875 23.472656 60.738281 23.433594 60.816406 C 23.398438 60.898438 21.988281 61.328125 21.535156 61.089844 C 21.078125 60.851562 20.652344 60.8125 20.582031 61.007812 C 20.582031 61.007812 20.582031 61.007812 20.621094 61.152344 C 20.738281 61.625 20.738281 61.625 20.738281 61.625 C 20.933594 62.121094 20.921875 62.921875 20.71875 63.402344 C 20.71875 63.402344 20.71875 63.402344 21.039062 63.820312 C 21.179688 64.003906 21.179688 64.003906 21.179688 64.003906 C 21.386719 64.183594 21.921875 64.339844 22.371094 64.347656 C 22.371094 64.347656 22.371094 64.347656 22.347656 64.910156 C 22.339844 65.164062 22.339844 65.164062 22.339844 65.164062 C 22.785156 65.457031 22.625 65.839844 22.480469 65.882812 C 22.332031 65.921875 24.039062 67.15625 23.871094 67.59375 C 23.703125 68.027344 24.371094 68.714844 24.679688 68.84375 C 24.988281 68.96875 24.246094 69.625 23.8125 69.628906 C 23.378906 69.628906 22.492188 69.558594 22.210938 69.574219 C 21.925781 69.589844 20.945312 69.925781 20.644531 69.839844 C 20.34375 69.757812 19.972656 69.695312 19.820312 69.699219 C 19.820312 69.699219 19.820312 69.699219 19.816406 69.722656 C 19.65625 70.769531 19.089844 70.113281 18.597656 69.9375 C 18.480469 69.898438 18.480469 69.898438 18.480469 69.898438 C 18.261719 70.011719 18.277344 70.273438 18.347656 70.339844 C 18.421875 70.402344 17.453125 70.835938 17.105469 70.632812 C 16.753906 70.433594 16.371094 70.984375 16.328125 71.308594 C 16.289062 71.628906 15.800781 71.539062 15.710938 71.464844 C 15.621094 71.394531 15.039062 70.957031 14.914062 71.070312 C 14.792969 71.1875 14.457031 71.46875 14.351562 71.523438 C 14.246094 71.582031 13.40625 71.699219 13.117188 71.703125 C 12.828125 71.707031 12.429688 72.1875 12.269531 72.25 C 12.109375 72.308594 11.738281 72.476562 11.445312 72.625 C 11.445312 72.625 11.445312 72.625 11.398438 72.800781 C 11.1875 73.597656 11.015625 74.40625 10.917969 75.214844 C 10.882812 75.480469 10.882812 75.480469 10.882812 75.480469 C 11.066406 75.796875 10.78125 76.214844 10.25 76.402344 C 10.25 76.402344 10.25 76.402344 10.019531 75.75 C 9.929688 75.488281 9.457031 75.085938 9.238281 75.113281 C 8.125 75.265625 8.125 75.265625 8.125 75.265625 C 7.210938 74.765625 5.238281 75.695312 4.507812 75.914062 C 3.777344 76.136719 3.714844 76.367188 4.367188 76.425781 C 4.367188 76.425781 4.367188 76.425781 4.457031 76.601562 C 4.628906 76.9375 4.753906 77.089844 5.214844 77.207031 C 5.589844 77.304688 5.476562 77.953125 5.097656 78.164062 C 4.941406 78.253906 4.667969 78.246094 4.570312 78.351562 C 4.390625 78.558594 4.175781 78.828125 4.207031 79.046875 C 4.230469 79.179688 4.230469 79.179688 4.230469 79.179688 C 4.664062 79.300781 4.707031 79.457031 4.324219 79.527344 C 4.324219 79.527344 4.324219 79.527344 4.230469 79.667969 C 3.90625 80.160156 3.585938 79.34375 3.3125 79.699219 C 3.0625 80.019531 2.796875 80.328125 2.570312 80.65625 C 2.476562 80.789062 2.488281 80.96875 2.410156 81.117188 C 2.179688 81.570312 2.179688 81.570312 2.179688 81.570312 C 2.625 82.105469 3.253906 82.398438 3.578125 82.21875 C 3.578125 82.21875 3.578125 82.21875 3.863281 82.027344 C 4.128906 81.847656 4.128906 81.847656 4.128906 81.847656 C 4.589844 81.734375 4.59375 83.160156 3.964844 83.40625 C 3.335938 83.65625 2.910156 84.554688 2.945312 84.828125 C 2.980469 85.101562 3.28125 85.828125 3.613281 86.441406 C 3.613281 86.441406 3.613281 86.441406 3.542969 87.066406 C 3.515625 87.289062 3.515625 87.289062 3.515625 87.289062 C 3.386719 87.5625 3.664062 87.613281 4.132812 87.40625 C 4.132812 87.40625 4.132812 87.40625 4.335938 87.480469 C 4.714844 87.625 4.714844 87.625 4.714844 87.625 C 4.496094 87.917969 4.257812 88.363281 4.179688 88.613281 C 4.179688 88.613281 4.179688 88.613281 4.386719 88.875 C 4.796875 89.394531 4.796875 89.394531 4.796875 89.394531 C 5.097656 89.082031 5.511719 88.847656 5.566406 88.863281 C 5.617188 88.878906 5.328125 90.324219 5.199219 90.867188 C 5.066406 91.40625 4.988281 92.769531 5.328125 92.925781 C 5.667969 93.085938 6.261719 93.117188 6.644531 92.996094 C 6.644531 92.996094 6.644531 92.996094 7.003906 92.957031 C 7.3125 92.925781 7.3125 92.925781 7.3125 92.925781 C 7.734375 92.988281 7.273438 94.152344 6.890625 94.453125 C 6.507812 94.753906 5.96875 95.171875 5.695312 95.382812 C 5.695312 95.382812 5.695312 95.382812 5.964844 95.613281 C 6.214844 95.828125 6.273438 95.96875 5.945312 96.105469 C 5.65625 96.222656 5.34375 96.339844 5.03125 96.371094 C 4.347656 96.441406 4.882812 96.65625 4.859375 96.832031 C 4.8125 97.175781 4.386719 97.472656 5.253906 97.429688 C 5.652344 97.410156 6.273438 97.367188 6.832031 97.125 C 6.976562 97.0625 7.289062 97.074219 7.378906 97.15625 C 7.542969 97.308594 7.542969 97.308594 7.542969 97.308594 C 7.628906 97.539062 7.984375 97.636719 8.089844 97.605469 C 8.199219 97.574219 8.980469 97.777344 9.234375 97.882812 C 9.488281 97.988281 10.355469 98.273438 10.488281 98.425781 C 10.621094 98.578125 11.140625 98.851562 11.640625 99.039062 C 11.640625 99.039062 11.640625 99.039062 12.136719 98.800781 C 12.207031 98.769531 12.546875 98.933594 12.566406 99.03125 C 12.738281 99.917969 12.738281 99.917969 12.738281 99.917969 C 13.601562 99.855469 15.578125 99.742188 16.054688 99.773438 C 16.535156 99.804688 17.140625 99.789062 17.269531 99.824219 C 17.398438 99.859375 18.605469 100.003906 19.949219 100.148438 C 19.949219 100.148438 19.949219 100.148438 20.710938 101.089844 C 20.730469 101.113281 20.730469 101.113281 20.730469 101.113281 C 20.878906 101.078125 22.511719 101.28125 22.652344 101.625 C 22.792969 101.964844 23.734375 101.800781 24.09375 101.761719 C 24.449219 101.726562 25.8125 102.257812 26.242188 102.238281 C 26.671875 102.21875 28.160156 102.222656 28.546875 102.339844 C 28.9375 102.457031 29.339844 102.46875 29.441406 102.367188 C 29.441406 102.367188 29.441406 102.367188 29.554688 102.339844 C 30.167969 102.203125 30.167969 102.203125 30.167969 102.203125 C 30.074219 102.53125 30.304688 102.746094 30.679688 102.675781 C 30.679688 102.675781 30.679688 102.675781 31.023438 102.628906 C 31.054688 102.625 31.152344 102.808594 31.164062 102.910156 C 31.183594 103.121094 31.183594 103.121094 31.183594 103.121094 C 31.175781 103.558594 31.808594 103.117188 31.953125 102.9375 C 32.097656 102.757812 32.703125 102.835938 32.894531 102.921875 C 33.082031 103.007812 32.898438 103.230469 32.484375 103.417969 C 32.484375 103.417969 32.484375 103.417969 32.472656 103.574219 C 32.425781 104.152344 33.03125 103.898438 33.378906 103.921875 C 33.472656 103.929688 33.589844 103.703125 33.707031 103.59375 C 33.800781 103.5 33.800781 103.5 33.800781 103.5 C 33.914062 103.40625 34.621094 103.804688 34.8125 103.609375 C 35.007812 103.417969 35.628906 103.71875 35.789062 103.90625 C 35.945312 104.09375 37.523438 103.554688 37.832031 103.757812 C 38.144531 103.960938 38.640625 104.183594 38.933594 104.253906 C 38.933594 104.253906 38.933594 104.253906 39.089844 104.167969 C 39.363281 104.019531 39.363281 104.019531 39.363281 104.019531 C 39.582031 103.757812 40.773438 104.054688 41.175781 104.035156 C 41.578125 104.011719 42.199219 103.894531 42.375 103.917969 C 42.550781 103.941406 43.179688 103.964844 43.769531 103.972656 C 43.769531 103.972656 43.769531 103.972656 44.191406 103.796875 C 44.988281 103.464844 45 104.460938 45.644531 104.285156 C 45.703125 104.265625 45.703125 104.265625 45.703125 104.265625 C 45.769531 104.238281 46.742188 103.710938 46.691406 104.027344 C 46.644531 104.34375 46.796875 104.292969 46.875 104.171875 C 46.953125 104.046875 47.480469 104.300781 47.625 104.152344 C 47.773438 104.007812 48.402344 103.425781 48.652344 103.492188 C 48.902344 103.554688 49.339844 103.96875 49.445312 104.132812 C 49.550781 104.296875 50 103.980469 50.125 103.828125 C 50.246094 103.675781 50.574219 104.074219 50.851562 104.710938 C 50.851562 104.710938 50.851562 104.710938 51.242188 104.175781 C 51.824219 103.375 52.085938 103.535156 52.648438 104.046875 C 52.734375 104.125 53.03125 104.183594 53.074219 104.140625 C 53.585938 103.644531 53.902344 104.128906 54.285156 104.285156 C 54.578125 104.402344 54.863281 104.527344 55.167969 104.625 C 55.75 104.8125 55.75 104.8125 55.75 104.8125 C 56.40625 104.703125 57.078125 104.582031 57.207031 104.511719 C 57.332031 104.445312 57.925781 104.234375 58.0625 104.34375 C 58.199219 104.453125 58.617188 104.253906 58.734375 104.148438 C 58.855469 104.042969 59.117188 103.992188 59.324219 104.03125 C 59.324219 104.03125 59.324219 104.03125 59.472656 104.125 C 59.695312 104.261719 59.695312 104.261719 59.695312 104.261719 C 59.910156 104.457031 60.519531 104.289062 60.691406 104.160156 C 60.859375 104.03125 61.140625 104.242188 61.191406 104.359375 C 61.242188 104.476562 62.507812 104.273438 62.996094 104.269531 C 63.484375 104.265625 64.3125 104.3125 64.507812 104.261719 C 64.703125 104.207031 65.679688 103.980469 66.679688 103.75 C 66.679688 103.75 66.679688 103.75 67.238281 104.011719 C 68 104.363281 68 104.363281 68 104.363281 C 68.757812 104.257812 70.707031 104.632812 71.335938 104.472656 C 71.964844 104.308594 73.460938 103.992188 73.992188 103.980469 C 74.523438 103.96875 75.417969 104.019531 75.984375 104.085938 C 75.984375 104.085938 75.984375 104.085938 76.523438 103.953125 C 77.308594 103.761719 77.308594 103.761719 77.308594 103.761719 C 77.828125 104.242188 79.074219 103.972656 79.375 103.726562 C 79.679688 103.476562 80.761719 103.546875 81.105469 103.574219 C 81.453125 103.601562 82.15625 103.503906 82.429688 103.554688 C 82.707031 103.609375 83.953125 103.957031 84.3125 103.84375 C 84.671875 103.734375 85.3125 103.605469 85.734375 103.558594 C 85.734375 103.558594 85.734375 103.558594 86.199219 103.78125 C 86.570312 103.960938 86.570312 103.960938 86.570312 103.960938 C 87.242188 103.785156 88.214844 103.613281 88.734375 103.578125 C 88.734375 103.578125 88.734375 103.578125 89.171875 103.613281 C 89.515625 103.644531 89.667969 104.050781 90.230469 103.871094 C 90.941406 103.644531 91.277344 103.976562 91.03125 104.542969 C 90.949219 104.738281 90.949219 104.738281 90.949219 104.738281 C 90.773438 104.929688 92.25 105.523438 92.449219 105.359375 C 92.648438 105.195312 92.210938 104.746094 91.976562 104.621094 C 91.738281 104.496094 91.746094 104.371094 91.992188 104.34375 C 91.992188 104.34375 91.992188 104.34375 92.058594 104.277344 C 92.25 104.085938 92.347656 103.742188 92.570312 103.6875 C 92.796875 103.632812 93.125 103.925781 93.410156 103.925781 C 94.0625 103.917969 94.5625 103.941406 94.757812 104.605469 C 94.835938 104.871094 94.835938 104.871094 94.835938 104.871094 C 95.269531 105.09375 96.054688 105.445312 96.582031 105.652344 C 96.582031 105.652344 96.582031 105.652344 96.644531 106.023438 C 96.679688 106.234375 96.679688 106.234375 96.679688 106.234375 C 96.75 106.457031 97.046875 106.285156 97.339844 105.847656 C 97.339844 105.847656 97.339844 105.847656 97.785156 105.511719 C 98.285156 105.132812 99.101562 105.070312 99.351562 104.371094 C 99.492188 103.976562 100.238281 103.324219 100.488281 104.472656 C 100.503906 104.546875 100.503906 104.546875 100.503906 104.546875 C 100.789062 104.589844 101.632812 104.953125 101.636719 105.15625 C 101.644531 105.355469 101.417969 105.773438 101.292969 105.851562 C 101.164062 105.925781 100.574219 106.0625 99.980469 106.152344 C 99.980469 106.152344 99.980469 106.152344 99.707031 105.589844 C 99.65625 105.484375 99.65625 105.484375 99.65625 105.484375 C 99.484375 105.410156 99.023438 105.613281 98.902344 105.710938 C 98.78125 105.808594 99.28125 106.121094 99.488281 106.203125 C 99.699219 106.28125 100.152344 106.488281 100.246094 106.554688 C 100.34375 106.621094 100.753906 107.128906 100.949219 107.035156 C 101.140625 106.9375 101.605469 106.460938 101.984375 105.972656 C 101.984375 105.972656 101.984375 105.972656 102.761719 106 C 103.917969 106.039062 104.976562 105.699219 106.046875 105.410156 C 106.113281 105.394531 106.300781 105.546875 106.339844 105.644531 C 106.371094 105.726562 106.371094 105.726562 106.371094 105.726562 C 106.285156 105.835938 105.671875 106.066406 105.460938 106.105469 C 105.25 106.144531 104.125 106.484375 104.125 106.785156 C 104.125 107.085938 103.347656 107.40625 103.078125 107.433594 C 102.808594 107.457031 102.597656 107.566406 102.601562 107.601562 C 102.605469 107.632812 103.6875 107.660156 104.085938 107.660156 C 104.480469 107.660156 105.453125 107 105.722656 106.730469 C 105.988281 106.457031 106.417969 106.855469 106.480469 107.035156 C 106.539062 107.214844 106.222656 107.414062 105.777344 107.484375 C 105.777344 107.484375 105.777344 107.484375 106.035156 107.933594 C 106.046875 107.957031 106.046875 107.957031 106.046875 107.957031 C 106.472656 107.835938 107.175781 107.808594 107.308594 107.882812 C 107.441406 107.960938 107.613281 107.621094 107.6875 107.128906 C 107.6875 107.128906 107.6875 107.128906 107.769531 107.125 C 108.246094 107.101562 108.246094 107.101562 108.246094 107.101562 C 108.832031 107.1875 109.324219 107.074219 109.339844 106.851562 C 109.339844 106.851562 109.339844 106.851562 109.304688 106.636719 C 109.273438 106.425781 109.273438 106.425781 109.273438 106.425781 C 109.183594 106.203125 108.9375 105.503906 109.15625 105.449219 C 109.378906 105.390625 110.394531 105.996094 110.742188 105.785156 C 111.089844 105.574219 111.097656 105.84375 110.988281 106.003906 C 110.878906 106.164062 109.964844 106.628906 110.164062 106.820312 C 110.363281 107.011719 110.808594 107.480469 110.894531 107.613281 C 110.980469 107.746094 111.257812 107.785156 111.335938 107.757812 C 111.414062 107.730469 111.46875 106.507812 111.671875 106.097656 C 111.875 105.6875 112 105.195312 111.949219 105.003906 C 111.949219 105.003906 111.949219 105.003906 111.945312 104.855469 C 111.941406 104.621094 111.941406 104.621094 111.941406 104.621094 C 112.101562 104.363281 112.675781 103.84375 112.792969 104 C 112.90625 104.15625 113.226562 104.636719 113.5 105.0625 C 113.5 105.0625 113.5 105.0625 113.9375 105.371094 C 114.121094 105.5 114.121094 105.5 114.121094 105.5 C 114.242188 105.777344 114.914062 106.214844 114.800781 106.382812 C 114.691406 106.550781 114.078125 107.304688 113.894531 107.5625 C 113.707031 107.816406 114.917969 107.453125 115.15625 107.0625 C 115.394531 106.667969 116 106.152344 116.5 105.917969 C 116.5 105.917969 116.5 105.917969 116.757812 106.097656 C 117.273438 106.449219 117.601562 106.40625 117.945312 106.015625 C 118.222656 105.699219 118.222656 105.699219 118.222656 105.699219 C 118.683594 105.683594 119.09375 104.5 119.09375 104.039062 C 119.09375 103.582031 119.722656 103.324219 119.925781 103.359375 C 120.128906 103.398438 120.558594 103.730469 120.882812 104.101562 C 120.882812 104.101562 120.882812 104.101562 120.320312 104.53125 C 120.023438 104.757812 120.023438 105.226562 119.78125 105.527344 C 119.675781 105.660156 119.675781 105.660156 119.675781 105.660156 C 119.339844 105.667969 118.929688 106.035156 118.765625 106.476562 C 118.765625 106.476562 118.765625 106.476562 118.574219 106.867188 C 118.523438 106.964844 118.21875 107.039062 118.050781 107.019531 C 117.699219 106.976562 117.699219 106.976562 117.699219 106.976562 C 117.335938 106.886719 116.871094 106.675781 116.660156 106.515625 C 116.660156 106.515625 116.660156 106.515625 116.425781 106.464844 C 116.171875 106.414062 116.171875 106.414062 116.171875 106.414062 C 115.851562 106.375 115.285156 106.859375 115.296875 107.085938 C 115.304688 107.3125 115.28125 107.605469 115.285156 107.726562 C 115.289062 107.847656 115.425781 107.894531 115.589844 107.828125 C 115.589844 107.828125 115.589844 107.828125 115.742188 107.820312 C 116.453125 107.789062 116.453125 107.789062 116.453125 107.789062 C 117.242188 107.738281 118.289062 107.800781 118.476562 107.773438 C 118.664062 107.742188 119.140625 107.070312 119.242188 106.855469 C 119.34375 106.640625 119.808594 105.507812 120.113281 105.757812 C 120.417969 106.011719 120.742188 105.433594 120.773438 105.121094 C 120.804688 104.804688 120.949219 104.628906 121.09375 104.730469 C 121.09375 104.730469 121.09375 104.730469 121.109375 104.777344 C 121.253906 105.203125 120.796875 106.300781 122.15625 105.390625 C 122.183594 105.371094 122.738281 105.691406 122.753906 105.871094 C 122.863281 107.203125 122.863281 107.203125 122.863281 107.203125 C 123.316406 107.578125 123.914062 107.96875 124.195312 108.070312 C 124.195312 108.070312 124.195312 108.070312 124.429688 108.042969 C 124.617188 108.019531 124.617188 108.019531 124.617188 108.019531 C 124.796875 107.835938 124.761719 107.539062 124.691406 107.488281 C 124.625 107.433594 123.488281 107.191406 123.648438 106.859375 C 123.808594 106.527344 124.382812 107.414062 124.910156 107.382812 C 125.4375 107.355469 127.132812 107.363281 127.453125 106.996094 C 127.773438 106.628906 128.101562 106.363281 128.179688 106.40625 C 128.179688 106.40625 128.179688 106.40625 128.226562 106.445312 C 128.5625 106.695312 127.933594 107.375 128.734375 107.335938 C 129.023438 107.320312 129.339844 106.851562 129.527344 106.542969 C 129.679688 106.292969 129.679688 106.292969 129.679688 106.292969 C 129.683594 106.019531 130.742188 105.96875 131.101562 106.027344 C 131.457031 106.085938 131.292969 106.921875 130.925781 106.960938 C 130.558594 107 129.917969 107.035156 129.5 107.035156 C 129.5 107.035156 129.5 107.035156 129.613281 107.441406 C 129.648438 107.566406 129.648438 107.566406 129.648438 107.566406 C 129.964844 107.644531 130.617188 107.742188 130.765625 107.730469 C 130.917969 107.714844 131.894531 107.234375 132.125 107.460938 C 132.351562 107.691406 132.765625 107.996094 132.875 108.019531 C 132.984375 108.042969 133.132812 107.972656 133.207031 107.863281 C 133.207031 107.863281 133.207031 107.863281 133.21875 107.757812 C 133.230469 107.640625 133.230469 107.640625 133.230469 107.640625 C 133.195312 107.511719 133.933594 107.03125 134.261719 106.882812 C 134.589844 106.738281 135.054688 107.011719 135.292969 107.492188 C 135.292969 107.492188 135.292969 107.492188 135.667969 107.613281 C 136.054688 107.742188 136.054688 107.742188 136.054688 107.742188 C 136.644531 107.554688 137.863281 107.480469 138.140625 107.566406 C 138.417969 107.652344 138.941406 107.808594 139.046875 107.847656 C 139.152344 107.886719 140.671875 107.695312 141.195312 107.816406 C 141.722656 107.933594 142.589844 108.007812 143.125 107.976562 C 143.125 107.976562 143.125 107.976562 143.132812 107.148438 C 143.136719 106.871094 143.136719 106.871094 143.136719 106.871094 C 143.457031 106.523438 144.140625 106.996094 144.289062 107.261719 C 144.433594 107.527344 145.578125 107.363281 145.992188 107.148438 C 146.402344 106.9375 146.929688 107.050781 147.160156 107.402344 C 147.160156 107.402344 147.160156 107.402344 147.394531 107.578125 C 147.59375 107.730469 147.59375 107.730469 147.59375 107.730469 C 147.886719 107.859375 148.191406 107.007812 148.214844 106.65625 C 148.238281 106.308594 148.597656 106.472656 148.648438 106.636719 C 148.703125 106.796875 149.304688 107.300781 149.007812 107.398438 C 148.714844 107.496094 149.207031 107.691406 150.109375 107.835938 C 150.109375 107.835938 150.109375 107.835938 150.765625 107.9375 C 150.863281 107.953125 150.863281 107.953125 150.863281 107.953125 C 150.964844 107.945312 151.550781 107.875 152.160156 107.792969 C 152.160156 107.792969 152.160156 107.792969 152.710938 107.71875 C 153.5 107.605469 154.355469 107.96875 155.109375 107.4375 C 155.375 107.246094 155.75 107.34375 155.785156 107.761719 C 155.816406 108.152344 156 107.9375 156.269531 107.871094 C 156.617188 107.785156 156.617188 107.785156 156.617188 107.785156 C 157.050781 107.859375 157.507812 107.417969 157.558594 107.179688 C 157.609375 106.9375 158.316406 106.917969 159.128906 107.132812 C 159.128906 107.132812 159.128906 107.132812 159.199219 107.902344 C 159.203125 107.941406 159.710938 108.039062 159.875 107.960938 C 160.167969 107.824219 160.167969 107.824219 160.167969 107.824219 C 160.480469 107.523438 161.113281 107.722656 161.28125 107.917969 C 161.449219 108.113281 161.996094 107.71875 162.113281 107.558594 C 162.230469 107.398438 162.84375 107.457031 163.472656 107.6875 C 163.472656 107.6875 163.472656 107.6875 163.855469 107.960938 C 164.535156 108.441406 164.535156 108.441406 164.535156 108.441406 C 164.972656 108.039062 165.722656 107.855469 166.199219 108.03125 C 166.199219 108.03125 166.199219 108.03125 166.601562 107.984375 C 167.0625 107.933594 167.667969 107.402344 167.890625 107.511719 C 168.703125 107.910156 168.703125 107.910156 168.703125 107.910156 C 168.964844 107.449219 169.234375 107.273438 169.257812 107.355469 C 169.28125 107.4375 170.519531 107.734375 170.992188 107.785156 C 171.46875 107.832031 172.425781 107.78125 172.640625 107.753906 C 172.859375 107.726562 173.570312 107.640625 173.742188 107.714844 C 173.910156 107.792969 174.421875 107.742188 174.675781 107.789062 C 174.929688 107.835938 176.445312 108.367188 176.949219 108.261719 C 177.457031 108.152344 177.957031 107.949219 178.058594 107.808594 C 178.058594 107.808594 178.058594 107.808594 178.164062 107.6875 C 178.359375 107.460938 178.359375 107.460938 178.359375 107.460938 C 178.722656 107.0625 179.019531 107.664062 179.3125 107.671875 C 179.605469 107.679688 180.613281 107.667969 181.554688 107.652344 C 181.554688 107.652344 181.554688 107.652344 182.222656 107.839844 C 182.988281 108.054688 183.652344 108.074219 184.382812 107.980469 C 184.539062 107.960938 184.539062 107.960938 184.539062 107.960938 C 184.695312 107.890625 185.632812 108.121094 185.914062 107.988281 C 186.195312 107.851562 187.179688 108.105469 187.476562 107.988281 C 187.773438 107.875 189.246094 108.144531 189.75 108.109375 C 190.25 108.070312 190.953125 107.964844 191.308594 107.875 C 191.308594 107.875 191.308594 107.875 191.644531 107.878906 C 192.066406 107.882812 192.066406 107.882812 192.066406 107.882812 C 192.550781 107.980469 192.953125 107.785156 192.964844 107.441406 C 192.964844 107.441406 192.964844 107.441406 192.941406 107.214844 C 192.921875 107.035156 192.921875 107.035156 192.921875 107.035156 C 192.78125 106.867188 193.175781 106.730469 193.359375 106.730469 C 193.546875 106.730469 193.6875 107.242188 193.644531 107.417969 C 193.601562 107.59375 193.9375 107.910156 194.390625 108.121094 C 194.390625 108.121094 194.390625 108.121094 194.878906 108.027344 C 194.992188 108.007812 195.078125 107.875 195.179688 107.796875 C 195.203125 107.777344 197.128906 107.363281 197.148438 107.378906 C 197.953125 107.890625 197.953125 107.890625 197.953125 107.890625 C 198.902344 107.707031 201.050781 107.539062 201.582031 107.601562 C 202.109375 107.664062 202.929688 107.714844 203.074219 107.691406 C 203.222656 107.671875 204.15625 107.324219 204.4375 107.453125 C 204.71875 107.585938 205.402344 107.441406 205.570312 107.527344 C 205.738281 107.613281 206.398438 107.777344 207.039062 107.890625 C 207.039062 107.890625 207.039062 107.890625 207.292969 107.691406 C 208.21875 106.960938 208.21875 106.960938 208.21875 106.960938 C 209.28125 107.230469 211.777344 107.953125 212.433594 107.882812 C 213.085938 107.8125 213.460938 107.125 213.617188 106.984375 C 213.773438 106.839844 214.96875 107.816406 215.398438 107.78125 C 215.824219 107.746094 217.722656 107.566406 218.308594 107.507812 C 218.894531 107.449219 219.410156 107.421875 219.445312 107.457031 C 219.484375 107.488281 219.683594 108.160156 219.902344 108.007812 C 220.125 107.859375 220.9375 107.585938 221.1875 107.558594 C 221.433594 107.535156 222.015625 107.691406 222.476562 107.914062 C 222.476562 107.914062 222.476562 107.914062 223.046875 107.542969 C 223.34375 107.351562 224.109375 107.699219 224.664062 107.699219 C 225.019531 107.703125 225.019531 107.703125 225.019531 107.703125 C 225.414062 107.558594 226.273438 107.503906 226.480469 107.574219 C 226.6875 107.648438 226.976562 107.683594 227.035156 107.628906 C 227.097656 107.578125 227.019531 107.460938 226.867188 107.371094 C 226.867188 107.371094 226.867188 107.371094 226.867188 107.292969 C 226.871094 107.203125 227.082031 107.03125 227.125 107.046875 C 227.363281 107.128906 227.65625 107.394531 227.785156 107.34375 C 228.0625 107.238281 228.226562 106.914062 228.570312 107.289062 C 228.601562 107.324219 228.96875 107.085938 229.140625 107.117188 C 229.542969 107.191406 229.542969 107.191406 229.542969 107.191406 C 230 107.308594 231.035156 107.214844 231.324219 107.378906 C 231.617188 107.546875 232.554688 107.609375 232.820312 107.554688 C 233.085938 107.5 233.914062 107.808594 234.136719 107.773438 C 234.359375 107.738281 234.792969 107.644531 235.101562 107.5625 C 235.101562 107.5625 235.101562 107.5625 235.464844 107.699219 C 236.164062 107.964844 236.164062 107.964844 236.164062 107.964844 C 236.277344 107.476562 236.449219 107.539062 236.484375 107.71875 C 236.515625 107.898438 237.105469 107.769531 237.285156 107.6875 C 237.46875 107.601562 237.941406 107.644531 238.332031 107.78125 C 238.332031 107.78125 238.332031 107.78125 238.675781 107.464844 C 238.976562 107.191406 238.976562 107.191406 238.976562 107.191406 C 239.382812 106.871094 239.835938 107.210938 239.867188 107.378906 C 239.898438 107.546875 240.855469 107.828125 241.175781 107.78125 C 241.496094 107.738281 242.382812 107.117188 242.679688 107.265625 C 242.980469 107.417969 243.636719 107.425781 244.144531 107.289062 C 244.144531 107.289062 244.144531 107.289062 244.570312 107.621094 C 245.289062 108.175781 245.289062 108.175781 245.289062 108.175781 C 245.902344 107.773438 247.378906 107.832031 247.675781 107.667969 C 247.96875 107.503906 248.878906 107.1875 249.121094 107.242188 C 249.367188 107.296875 251.207031 107.585938 251.855469 107.597656 C 252.5 107.605469 253.136719 107.582031 253.210938 107.523438 C 253.285156 107.460938 253.933594 107.097656 254.074219 107.289062 C 254.210938 107.484375 254.910156 107.332031 255.625 106.953125 C 255.625 106.953125 255.625 106.953125 256.046875 107.085938 C 257.40625 107.515625 257.40625 107.515625 257.40625 107.515625 C 258.804688 107.25 260.953125 107.433594 261.371094 107.390625 C 261.789062 107.351562 262.234375 106.824219 262.273438 106.644531 C 262.3125 106.460938 263.136719 106.902344 263.417969 107.109375 C 263.695312 107.316406 264.546875 107.035156 264.746094 106.886719 C 264.949219 106.742188 265.285156 106.707031 265.5 106.808594 C 265.5 106.808594 265.5 106.808594 265.652344 106.90625 C 266.613281 107.53125 266.636719 107.527344 267.546875 107 C 267.863281 106.816406 268.398438 106.730469 268.511719 106.496094 C 268.644531 106.210938 268.644531 106.210938 268.644531 106.210938 C 268.894531 106.109375 269.390625 106.226562 269.464844 106.378906 C 269.539062 106.535156 269.855469 106.519531 269.96875 106.453125 C 270.085938 106.390625 270.25 106.878906 270.277344 107.054688 C 270.300781 107.230469 271.113281 107.382812 271.410156 107.390625 C 271.710938 107.398438 272.679688 107.488281 272.921875 107.417969 C 273.164062 107.351562 274.0625 107.519531 274.332031 107.355469 C 274.605469 107.1875 275.386719 107.003906 275.621094 107.046875 C 275.855469 107.089844 276.671875 107.269531 276.898438 107.351562 C 277.128906 107.429688 277.636719 107.320312 278.027344 107.105469 C 278.027344 107.105469 278.027344 107.105469 278.53125 107.355469 C 278.980469 107.582031 279.503906 107.632812 280.082031 107.398438 C 280.597656 107.195312 280.597656 107.195312 280.597656 107.195312 C 281.339844 107.125 282.265625 107.398438 282.445312 107.585938 C 282.628906 107.777344 283.472656 107.359375 283.691406 107.183594 C 283.910156 107.007812 284.863281 107.261719 285.210938 107.4375 C 285.554688 107.617188 286.050781 107.378906 286.3125 106.914062 C 286.3125 106.914062 286.3125 106.914062 286.757812 107.054688 C 287.519531 107.292969 287.519531 107.292969 287.519531 107.292969 C 288.328125 107.183594 289.1875 107.042969 289.316406 107.066406 C 289.441406 107.089844 291.796875 107.625 292.675781 107.539062 C 293.550781 107.449219 295.542969 106.980469 295.949219 107.230469 C 296.351562 107.484375 296.960938 107.410156 297.296875 107.074219 C 297.296875 107.074219 297.296875 107.074219 297.410156 107.117188 C 298.179688 107.394531 298.179688 107.394531 298.179688 107.394531 C 298.9375 107.210938 300.28125 107.078125 301.160156 107.101562 C 301.160156 107.101562 301.160156 107.101562 301.695312 107.425781 C 302.429688 107.875 302.429688 107.875 302.429688 107.875 C 303.027344 107.578125 304.578125 107.46875 305.007812 107.417969 C 305.4375 107.367188 306.761719 107.132812 306.917969 107.339844 C 307.074219 107.546875 307.566406 107.371094 307.761719 107.371094 C 307.957031 107.375 309.554688 107.503906 310.105469 107.542969 C 310.660156 107.585938 311.394531 107.632812 311.648438 107.613281 C 311.902344 107.589844 312.554688 107.761719 312.761719 107.742188 C 312.972656 107.71875 314.203125 107.128906 314.667969 107.210938 C 315.128906 107.296875 316.683594 107.210938 317.117188 107.269531 C 317.554688 107.328125 318.769531 107.5 319.101562 107.4375 C 319.433594 107.375 320.6875 107.539062 321.152344 107.480469 C 321.613281 107.421875 322.597656 107.382812 322.820312 107.390625 C 323.042969 107.398438 324.128906 107.992188 324.144531 107.671875 C 324.160156 107.347656 324.308594 107.359375 324.359375 107.46875 C 324.414062 107.578125 325.792969 107.304688 326.332031 107.320312 C 326.867188 107.335938 327.671875 107.371094 327.902344 107.269531 C 328.132812 107.171875 328.945312 107.398438 329.183594 107.363281 C 329.425781 107.328125 330.253906 107.136719 331.023438 106.9375 C 331.023438 106.9375 331.023438 106.9375 331.597656 107.078125 C 332.457031 107.285156 332.457031 107.285156 332.457031 107.285156 C 333.308594 107.148438 334.539062 107.0625 335.1875 107.089844 C 335.1875 107.089844 335.1875 107.089844 335.621094 106.890625 C 336.222656 106.617188 336.222656 106.617188 336.222656 106.617188 C 336.675781 106.851562 337.492188 106.917969 338.039062 106.761719 C 338.039062 106.761719 338.039062 106.761719 338.554688 106.699219 C 339.097656 106.632812 339.097656 106.632812 339.097656 106.632812 C 339.691406 106.617188 340.578125 106.714844 341.070312 106.855469 C 341.070312 106.855469 341.070312 106.855469 341.589844 106.71875 C 342.105469 106.585938 342.105469 106.585938 342.105469 106.585938 C 342.738281 106.65625 343.648438 106.484375 344.121094 106.203125 C 344.121094 106.203125 344.121094 106.203125 344.6875 106.558594 C 344.8125 106.636719 344.8125 106.636719 344.8125 106.636719 C 345.171875 106.488281 346.761719 106.902344 347.15625 106.617188 C 347.550781 106.332031 348.277344 106.152344 348.355469 106.269531 C 348.433594 106.386719 349.390625 106.125 349.808594 106.082031 C 350.222656 106.039062 351.144531 105.917969 351.855469 105.816406 C 351.855469 105.816406 351.855469 105.816406 352.546875 105.972656 C 352.953125 106.066406 352.953125 106.066406 352.953125 106.066406 C 353.464844 105.90625 354.582031 105.472656 354.757812 105.617188 C 354.9375 105.761719 356.746094 105.3125 357.429688 105.316406 C 358.113281 105.316406 359.382812 105.140625 359.652344 105.097656 C 359.921875 105.050781 360.996094 105.328125 361.257812 105.199219 C 361.519531 105.066406 362.277344 105.007812 362.9375 105.066406 C 362.9375 105.066406 362.9375 105.066406 363.457031 104.6875 C 363.507812 104.648438 363.507812 104.648438 363.507812 104.648438 C 363.765625 104.71875 364.433594 104.511719 364.992188 104.1875 C 364.992188 104.1875 364.992188 104.1875 365.121094 104.394531 C 365.488281 104.988281 366.007812 103.882812 366.265625 104.523438 C 366.273438 104.542969 367.140625 104.269531 367.207031 104.351562 C 367.699219 104.953125 367.699219 104.953125 367.699219 104.953125 C 368.082031 104.585938 368.835938 104.132812 369.371094 103.945312 C 369.371094 103.945312 369.371094 103.945312 369.910156 103.941406 C 370.964844 103.9375 370.964844 103.9375 370.964844 103.9375 C 372.117188 103.902344 373.507812 103.777344 374.0625 103.652344 C 374.0625 103.652344 374.0625 103.652344 374.589844 103.585938 C 375.105469 103.519531 375.105469 103.519531 375.105469 103.519531 C 375.65625 103.386719 378.882812 103.191406 379.875 102.929688 C 380.871094 102.667969 382.085938 102.511719 382.578125 102.582031 C 382.578125 102.582031 382.578125 102.582031 383 102.40625 C 383.351562 102.265625 383.351562 102.265625 383.351562 102.265625 C 383.71875 102.101562 384.488281 101.980469 384.652344 101.960938 C 384.816406 101.945312 385.519531 101.644531 385.710938 101.519531 C 385.90625 101.398438 386.207031 101.3125 386.257812 101.320312 C 386.3125 101.328125 386.628906 101.402344 386.96875 101.484375 C 386.96875 101.484375 386.96875 101.484375 386.792969 101.226562 C 386.1875 100.308594 386.1875 100.308594 386.1875 100.308594 C 385.363281 99.386719 384.871094 98.488281 384.898438 98.464844 C 384.925781 98.441406 385.507812 98.105469 386.191406 97.710938 C 386.191406 97.710938 386.191406 97.710938 385.382812 96.773438 C 385.058594 96.394531 385.058594 96.394531 385.058594 96.394531 C 385.210938 96.023438 385.421875 95.460938 385.53125 95.140625 C 385.53125 95.140625 385.53125 95.140625 385.203125 94.878906 C 384.925781 94.660156 384.925781 94.660156 384.925781 94.660156 C 384.882812 94.335938 384.804688 93.753906 384.75 93.371094 C 384.75 93.371094 384.75 93.371094 384.777344 93.101562 C 384.84375 92.453125 384.84375 92.453125 384.84375 92.453125 C 384.332031 92.421875 384.898438 92.054688 385.082031 91.769531 C 385.265625 91.480469 385.800781 90.855469 386.269531 90.382812 C 386.269531 90.382812 386.269531 90.382812 385.546875 90.058594 C 384.609375 89.636719 384.453125 89.277344 385.113281 88.582031 C 385.351562 88.328125 385.351562 88.328125 385.351562 88.328125 C 385.382812 87.871094 384.910156 87.089844 384.691406 86.914062 C 384.472656 86.734375 384.378906 86.519531 384.421875 86.484375 C 384.464844 86.453125 384.578125 86.1875 384.710938 86.160156 C 384.839844 86.132812 384.816406 85.691406 384.925781 85.578125 C 385.03125 85.46875 385.929688 84.96875 386.113281 84.710938 C 386.304688 84.453125 386.34375 84.144531 386.207031 84.027344 C 386.207031 84.027344 386.207031 84.027344 386.101562 84.019531 C 385.542969 83.972656 385.296875 83.707031 385.121094 83.296875 C 384.933594 82.851562 384.933594 82.851562 384.933594 82.851562 C 385.089844 82.414062 385.722656 82.101562 385.914062 82.117188 C 386.109375 82.132812 386.585938 81.335938 386.699219 81.316406 C 386.816406 81.300781 387.210938 81.5 387.285156 81.640625 C 387.363281 81.777344 388.332031 81.511719 388.683594 81.363281 C 389.039062 81.214844 388.710938 80.980469 388.511719 81.011719 C 388.3125 81.046875 387.246094 81.332031 387.28125 81.0625 C 387.320312 80.792969 387.179688 80.625 387.105469 80.628906 C 387.03125 80.636719 386.371094 80.960938 386.167969 80.832031 C 385.960938 80.703125 385.492188 80.324219 385.363281 80.230469 C 385.238281 80.136719 385.953125 80 386.207031 80.058594 C 386.460938 80.117188 387.199219 80.125 387.402344 80.054688 C 387.605469 79.980469 388.296875 80.117188 388.472656 80.265625 C 388.652344 80.417969 388.65625 80.214844 388.488281 79.820312 C 388.488281 79.820312 388.488281 79.820312 388.289062 79.511719 C 388.183594 79.351562 388.183594 79.351562 388.183594 79.351562 C 388.199219 79.121094 389.246094 78.777344 389.46875 78.53125 C 389.6875 78.285156 389.378906 77.625 389.222656 77.492188 C 389.066406 77.363281 389.050781 76.9375 389.191406 76.542969 C 389.191406 76.542969 389.191406 76.542969 389.367188 76.199219 C 389.703125 75.558594 389.703125 75.558594 389.703125 75.558594 C 388.84375 75.238281 388.816406 75.03125 389.644531 75.097656 C 389.644531 75.097656 389.644531 75.097656 389.707031 75.242188 C 389.855469 75.601562 389.855469 75.601562 389.855469 75.601562 C 390.191406 75.65625 390.527344 75.484375 390.605469 75.222656 C 390.605469 75.222656 390.605469 75.222656 390.347656 74.996094 C 390.300781 74.957031 390.460938 74.765625 390.527344 74.644531 C 390.777344 74.203125 390.589844 74.039062 390.011719 74.035156 C 389.792969 74.03125 389.792969 74.03125 389.792969 74.03125 C 389.554688 73.898438 389.574219 73.585938 389.660156 73.507812 C 389.742188 73.433594 390.015625 73.085938 390.269531 72.734375 C 390.269531 72.734375 390.269531 72.734375 390.085938 72.425781 C 389.640625 71.683594 389.042969 71.285156 388.640625 71.378906 C 388.523438 71.40625 388.523438 71.40625 388.523438 71.40625 C 388.386719 71.550781 387.964844 71.074219 387.863281 70.878906 C 387.757812 70.6875 388.390625 70.09375 388.644531 69.9375 C 388.894531 69.785156 388.054688 69.566406 387.769531 69.542969 C 387.484375 69.519531 387.605469 68.988281 387.714844 68.832031 C 387.824219 68.675781 388.050781 68.539062 388.21875 68.527344 C 388.21875 68.527344 388.21875 68.527344 388.261719 68.554688 C 388.570312 68.769531 388.570312 68.769531 388.570312 68.769531 C 388.898438 69.019531 389.460938 68.984375 389.570312 68.894531 C 389.679688 68.804688 389.382812 68.242188 389.148438 67.742188 C 388.917969 67.242188 388.394531 66.917969 387.984375 67.019531 C 387.984375 67.019531 387.984375 67.019531 387.832031 66.789062 C 387.460938 66.234375 387.460938 66.234375 387.460938 66.234375 C 388.035156 65.894531 388.085938 65.4375 387.929688 65.367188 C 387.773438 65.296875 387.234375 65.464844 386.726562 65.742188 C 386.726562 65.742188 386.726562 65.742188 386.308594 65.210938 C 386.28125 65.175781 386.28125 65.175781 386.28125 65.175781 C 386.214844 65.15625 386.132812 65.339844 386.101562 65.582031 C 386.101562 65.582031 386.101562 65.582031 385.96875 65.757812 C 385.769531 66.023438 385.769531 66.023438 385.769531 66.023438 C 385.480469 66.253906 384.71875 66.285156 384.539062 66.144531 C 384.359375 66.003906 384.671875 65.433594 385.234375 64.875 C 385.234375 64.875 385.234375 64.875 385.320312 64.390625 C 385.398438 63.96875 384.925781 63.484375 384.726562 63.019531 C 384.699219 62.949219 384.699219 62.949219 384.699219 62.949219 C 384.820312 62.800781 385.648438 63.457031 386 63.671875 C 386.351562 63.886719 387.015625 63.757812 387.152344 63.644531 C 387.289062 63.535156 388.132812 63.628906 388.363281 63.765625 C 388.59375 63.90625 388.695312 63.6875 388.585938 63.285156 C 388.585938 63.285156 388.585938 63.285156 388.519531 62.929688 C 388.433594 62.496094 388.433594 62.496094 388.433594 62.496094 C 387.988281 62.511719 387.289062 62.421875 386.878906 62.296875 C 386.878906 62.296875 386.878906 62.296875 386.863281 62.152344 C 386.792969 61.445312 386.792969 61.445312 386.792969 61.445312 C 386.464844 61.761719 386.042969 61.71875 385.855469 61.355469 C 385.855469 61.355469 385.855469 61.355469 385.746094 61.367188 C 385.054688 61.445312 385.253906 60.941406 385.015625 60.742188 C 384.898438 60.648438 384.898438 60.648438 384.898438 60.648438 C 384.644531 60.652344 383.570312 60.507812 383.527344 60.25 C 383.484375 59.988281 383.707031 59.335938 383.816406 59.152344 C 383.925781 58.96875 384.816406 59.417969 385.164062 59.480469 C 385.511719 59.546875 387.175781 59.441406 387.628906 59.625 C 388.078125 59.8125 389.921875 60.316406 390.476562 60.195312 C 391.035156 60.074219 392.355469 59.832031 392.691406 59.972656 C 393.027344 60.109375 393.523438 60.261719 393.792969 60.304688 C 393.792969 60.304688 393.792969 60.304688 393.832031 60.25 C 394.132812 59.792969 394.46875 60.304688 394.742188 60.207031 C 395.0625 60.09375 395.0625 60.09375 395.0625 60.09375 C 395.320312 59.945312 395 59.402344 394.808594 59.242188 C 394.613281 59.082031 394.324219 58.171875 394.652344 58.035156 C 394.976562 57.898438 394.601562 56.171875 394.398438 55.644531 C 394.195312 55.117188 394.117188 54.140625 394.429688 54.117188 C 394.746094 54.09375 395.445312 53.960938 395.984375 53.820312 C 395.984375 53.820312 395.984375 53.820312 396.105469 53.367188 C 396.191406 53.058594 396.191406 53.058594 396.191406 53.058594 C 396.1875 52.589844 396.648438 52.4375 397.21875 52.714844 C 397.21875 52.714844 397.21875 52.714844 397.613281 52.695312 " fill-opacity="1" fill-rule="nonzero"/></g><path fill="#4643df" d="M 399.65625 58.589844 C 399.65625 58.589844 399.65625 58.589844 399.355469 58.21875 C 398.953125 57.722656 398.953125 57.722656 398.953125 57.722656 C 398.363281 57.691406 398.257812 57.910156 398.714844 58.207031 C 398.714844 58.207031 398.714844 58.207031 397.757812 58.226562 C 397.359375 58.234375 397.359375 58.234375 397.359375 58.234375 C 396.84375 58.097656 396.625 58.382812 396.871094 58.867188 C 396.871094 58.867188 396.871094 58.867188 397.136719 59.222656 C 397.261719 59.394531 397.585938 59.625 397.757812 59.59375 C 398.871094 59.398438 398.871094 59.398438 398.871094 59.398438 C 399.792969 59.960938 400.394531 60.277344 400.203125 60.101562 C 400.011719 59.929688 400.445312 59.230469 400.628906 59.183594 C 400.8125 59.132812 400.375 58.863281 399.65625 58.589844 " fill-opacity="1" fill-rule="nonzero"/><g clip-path="url(#300472d83b)"><path fill="#cfcabf" d="M 181.070312 0.316406 L 220.945312 0.316406 L 220.945312 17.917969 L 181.070312 17.917969 Z M 181.070312 0.316406 " fill-opacity="1" fill-rule="nonzero"/></g></svg>